<?xml version="1.0" encoding="UTF-8"?>
<svg xmlns="http://www.w3.org/2000/svg" version="1.1" viewBox="0 0 200 200">
  <defs>
    <style>
      .cls-1 {
        fill: #fff;
      }
    </style>
  </defs>
  <!-- Generator: Adobe Illustrator 28.7.1, SVG Export Plug-In . SVG Version: 1.2.0 Build 142)  -->
  <g>
    <g id="Layer_1">
      <path class="cls-1" d="M145.5,42c0-9.9.2-19.1-.2-28.5-11.6-1.1-22.5-2.1-33.6-.4-5.5.8-10.6,2.9-15.2,6.2-9.5,6.9-14,16.6-14.9,27.9-.6,7.7-.3,15.4-.5,23.2,0,1.9-.3,3.7-.4,5.9-4.7,0-8.9,0-13.2,0-4.2,0-8.5-.4-13.1.5,0,10.6-.2,20.8.2,31.5h26.1c.1,2.6.3,4.7.3,6.9,0,22.2,0,44.4.1,66.6,0,1.9.2,3.8.3,5.9h32.4c.3-26.6-.2-52.8.2-79.6h25.9c1.9-5.9,4.4-28.2,3.5-32h-29.2c0-8.4-.3-16.3.1-24.1.3-5.2,3.5-8.3,8.6-9.3,2.7-.5,5.5-.7,8.2-.7,4.5-.1,9.1,0,14.3,0Z"/>
    </g>
  </g>
</svg>