<?xml version="1.0" encoding="UTF-8"?>
<svg xmlns="http://www.w3.org/2000/svg" version="1.1" viewBox="0 0 200 200">
  <defs>
    <style>
      .cls-1 {
        fill: #fff;
      }
    </style>
  </defs>
  <!-- Generator: Adobe Illustrator 28.7.1, SVG Export Plug-In . SVG Version: 1.2.0 Build 142)  -->
  <g>
    <g id="Layer_1">
      <path class="cls-1" d="M100,56.3c-22.8-.5-44.5,19-44.2,44.3.2,24.5,20.7,43.8,44.5,43.8,24.1,0,44.3-20.3,44.1-44.1-.3-25.6-22.1-44.4-44.3-43.9ZM100.2,127.9c-15.6.1-27.9-12-28-27.5,0-15.2,12.2-27.8,27.2-28,15.6-.2,28.5,12.3,28.5,27.7,0,15.4-12.2,27.8-27.7,27.9ZM145.5,44.5c-5.8-.1-10.7,4.5-10.8,10.2-.1,5.8,4.8,10.8,10.7,10.8,5.8,0,10.6-4.7,10.6-10.4,0-5.8-4.7-10.4-10.5-10.5ZM185.1,70.8c0-5.9-.7-11.9-1.7-17.7-2.2-12.1-8.4-21.8-18.6-28.8-8.9-6.1-19-8.6-29.7-8.8-11.8-.2-23.5,0-35.3,0v-.5c-7.8,0-15.6-.2-23.4,0-7.5.3-15.1.3-22.4,1.7-19.1,3.5-32,14.5-36.9,33.6-1.4,5.3-2.1,10.9-2.2,16.3-.3,20.7-.3,41.3-.1,62,0,6.3.7,12.7,1.8,19,2.2,11.7,8.2,21.2,18,28.2,8.8,6.3,18.8,8.8,29.2,9,24.2.3,48.4.3,72.7,0,5.4,0,11-1.1,16.2-2.8,14.8-4.6,24.7-14.4,29.4-29.3,2-6.3,2.9-12.7,3-19.2.1-20.9.2-41.9,0-62.8ZM168.6,134.4c-.1,4.5-.9,9-2.1,13.3-3.3,11.5-11.3,18.1-23,19.9-7.5,1.1-15.2,1.3-22.8,1.6-6.8.2-13.6,0-20.4,0,0,0,0,.2,0,.3-12-.3-24.1-.4-36.1-1-4.3-.2-8.7-1-12.9-2.3-9.8-3.1-15.8-10-18.3-20-1.9-7.2-1.9-14.6-2-21.9,0-19.7.1-39.3.3-59,0-3.4.6-6.8,1.3-10.1,2.7-12.4,10.5-19.8,22.7-22.3,4.7-1,9.5-1.5,14.3-1.6,21.2-.1,42.5,0,63.7.2,4.2,0,8.5.7,12.6,1.7,12.7,3.2,20.7,12.2,21.8,25.6.9,11.1,1.2,22.3,1.3,33.5.1,14-.1,28-.5,42Z"/>
    </g>
  </g>
</svg>