<?xml version="1.0" encoding="UTF-8"?>
<svg xmlns="http://www.w3.org/2000/svg" version="1.1" viewBox="0 0 200 200">
  <defs>
    <style>
      .cls-1 {
        fill: #fff;
      }
    </style>
  </defs>
  <!-- Generator: Adobe Illustrator 28.7.1, SVG Export Plug-In . SVG Version: 1.2.0 Build 142)  -->
  <g>
    <g id="Layer_1">
      <g>
        <path class="cls-1" d="M10.7,70.1c0,6.2,0,12.7,0,19.1,0,32.1,0,64.2.1,96.3,0,2,.3,4,.4,6.1h37.7c1.3-4.3,1.3-116.4,0-121.8-5.2-1.4-33.5-1.3-38.3.3Z"/>
        <path class="cls-1" d="M30.4,8.4c-12.6-.1-22.5,9.6-22.7,22.1-.2,12.2,10,22.7,22.2,22.8,12.4,0,22.7-9.9,22.9-22.2.2-12-10.2-22.6-22.4-22.7Z"/>
        <path class="cls-1" d="M192.2,117.8c0-6.1-.6-12.3-1.8-18.3-2.2-11.1-7-20.7-17-27-9.5-5.9-20-7.3-30.8-6.5-12.1.9-22.3,6-30.1,15.6-.4.5-1,.9-2.3,2.1v-14.6c-12.6-.6-24.8-.3-37.2,0-.1,2.6-.3,4.5-.3,6.4,0,36.9.2,73.9.3,110.8,0,1.7.3,3.4.4,5.1h38.2c.2-2.1.4-4,.4-5.9,0-7.7,0-15.5,0-23.2,0-11.1,0-22.3.1-33.4,0-4.3.6-8.7,1.5-12.9,2.1-10,8.6-15.1,18.8-15.5,10.6-.5,17.5,2.3,20.2,16.7.8,4.3.9,8.7,1,13,.1,18.4,0,36.8.1,55.2,0,2,.2,4,.3,6.2h38.1c.1-2.2.4-4.1.4-6,0-22.6.1-45.2-.1-67.8Z"/>
      </g>
    </g>
  </g>
</svg>