<?xml version="1.0" encoding="UTF-8"?>
<svg xmlns="http://www.w3.org/2000/svg" version="1.1" viewBox="0 0 200 200">
  <defs>
    <style>
      .cls-1 {
        fill: #fff;
      }
    </style>
  </defs>
  <!-- Generator: Adobe Illustrator 28.7.1, SVG Export Plug-In . SVG Version: 1.2.0 Build 142)  -->
  <g>
    <g id="Layer_1">
      <path class="cls-1" d="M188.5,69c-.5-4.6-1.5-9.2-2.9-13.7-3.1-10.1-10.5-15.1-20.7-16.4-3.9-.5-7.9-.8-11.8-.9-17.8-.5-35.7-.9-53.6-1.3,0,.2,0,.5,0,.7-13.3,0-26.6-.2-40,0-8.3.1-16.7.6-25,1.4-10.3,1-17.4,6.5-20.5,16.5-1,3.3-2,6.8-2.3,10.2-.8,9.3-1.6,18.6-1.6,28,0,11.8.4,23.7.9,35.5.2,5.9,1.5,11.6,3.5,17.1,2.6,7.3,7.8,11.9,15.3,13.8,3.5.9,7.2,1.5,10.8,1.7,13.9.7,27.8,1.6,41.7,1.7,23.4,0,46.8-.4,70.3-.9,5.4-.1,10.8-.7,16.1-1.7,8-1.6,13.6-6.4,16.4-14.3,2-5.5,3.3-11.3,3.5-17.1.5-13.7.9-27.5.9-41.2,0-6.4-.4-12.9-1.2-19.2ZM82.6,123.8c-1.1-4.4-1.1-43.8.1-48.3,14.9,7.8,29.7,15.6,45.3,23.7-15.7,8.5-30.5,16.5-45.5,24.5Z"/>
    </g>
  </g>
</svg>